<svg height="512pt" viewBox="0 -4 512.00003 512" width="512pt" xmlns="http://www.w3.org/2000/svg"><path d="m160.851562 153.855469 88.066407-141.226563c1.457031-2.53125 4.160156-4.09375 7.082031-4.09375s5.625 1.5625 7.082031 4.09375l88.066407 141.226563zm0 0" fill="#955ba5"/><g fill="#f0c419"><path d="m110.933594 25.601562c-4.714844 0-8.535156-3.820312-8.535156-8.535156v-8.53125c0-4.714844 3.820312-8.535156 8.535156-8.535156 4.710937 0 8.53125 3.820312 8.53125 8.535156v8.53125c0 4.714844-3.820313 8.535156-8.53125 8.535156zm0 0"/><path d="m110.933594 68.265625c-4.714844 0-8.535156-3.820313-8.535156-8.53125v-8.535156c0-4.710938 3.820312-8.53125 8.535156-8.53125 4.710937 0 8.53125 3.820312 8.53125 8.53125v8.535156c0 4.710937-3.820313 8.53125-8.53125 8.53125zm0 0"/><path d="m93.867188 42.667969h-8.535157c-4.710937 0-8.53125-3.820313-8.53125-8.535157 0-4.710937 3.820313-8.53125 8.53125-8.53125h8.535157c4.710937 0 8.53125 3.820313 8.53125 8.53125 0 4.714844-3.820313 8.535157-8.53125 8.535157zm0 0"/><path d="m136.535156 42.667969h-8.535156c-4.710938 0-8.535156-3.820313-8.535156-8.535157 0-4.710937 3.824218-8.53125 8.535156-8.53125h8.535156c4.710938 0 8.53125 3.820313 8.53125 8.53125 0 4.714844-3.820312 8.535157-8.53125 8.535157zm0 0"/><path d="m34.132812 119.464844c-4.710937 0-8.53125-3.820313-8.53125-8.53125v-8.535156c0-4.710938 3.820313-8.53125 8.53125-8.53125 4.714844 0 8.535157 3.820312 8.535157 8.53125v8.535156c0 4.710937-3.820313 8.53125-8.535157 8.53125zm0 0"/><path d="m34.132812 162.132812c-4.710937 0-8.53125-3.820312-8.53125-8.53125v-8.535156c0-4.710937 3.820313-8.53125 8.53125-8.53125 4.714844 0 8.535157 3.820313 8.535157 8.53125v8.535156c0 4.710938-3.820313 8.53125-8.535157 8.53125zm0 0"/><path d="m17.066406 136.535156h-8.53125c-4.714844 0-8.535156-3.824218-8.535156-8.535156s3.820312-8.535156 8.535156-8.535156h8.53125c4.714844 0 8.535156 3.824218 8.535156 8.535156s-3.820312 8.535156-8.535156 8.535156zm0 0"/><path d="m59.734375 136.535156h-8.535156c-4.710938 0-8.53125-3.824218-8.53125-8.535156s3.820312-8.535156 8.53125-8.535156h8.535156c4.710937 0 8.53125 3.824218 8.53125 8.535156s-3.820313 8.535156-8.53125 8.535156zm0 0"/><path d="m392.535156 42.667969c-4.714844 0-8.535156-3.820313-8.535156-8.535157v-8.53125c0-4.714843 3.820312-8.535156 8.535156-8.535156 4.710938 0 8.53125 3.820313 8.53125 8.535156v8.53125c0 4.714844-3.820312 8.535157-8.53125 8.535157zm0 0"/><path d="m392.535156 85.332031c-4.714844 0-8.535156-3.820312-8.535156-8.53125v-8.535156c0-4.710937 3.820312-8.53125 8.535156-8.53125 4.710938 0 8.53125 3.820313 8.53125 8.53125v8.535156c0 4.710938-3.820312 8.53125-8.53125 8.53125zm0 0"/><path d="m375.464844 59.734375h-8.53125c-4.714844 0-8.535156-3.820313-8.535156-8.535156 0-4.710938 3.820312-8.53125 8.535156-8.53125h8.53125c4.714844 0 8.535156 3.820312 8.535156 8.53125 0 4.714843-3.820312 8.535156-8.535156 8.535156zm0 0"/><path d="m418.132812 59.734375h-8.53125c-4.714843 0-8.535156-3.820313-8.535156-8.535156 0-4.710938 3.820313-8.53125 8.535156-8.53125h8.53125c4.714844 0 8.535157 3.820312 8.535157 8.53125 0 4.714843-3.820313 8.535156-8.535157 8.535156zm0 0"/><path d="m477.867188 128c-4.714844 0-8.535157-3.820312-8.535157-8.535156v-8.53125c0-4.714844 3.820313-8.535156 8.535157-8.535156 4.710937 0 8.53125 3.820312 8.53125 8.535156v8.53125c0 4.714844-3.820313 8.535156-8.53125 8.535156zm0 0"/><path d="m477.867188 170.667969c-4.714844 0-8.535157-3.820313-8.535157-8.535157v-8.53125c0-4.714843 3.820313-8.535156 8.535157-8.535156 4.710937 0 8.53125 3.820313 8.53125 8.535156v8.53125c0 4.714844-3.820313 8.535157-8.53125 8.535157zm0 0"/><path d="m460.800781 145.066406h-8.535156c-4.710937 0-8.53125-3.820312-8.53125-8.53125 0-4.714844 3.820313-8.535156 8.53125-8.535156h8.535156c4.710938 0 8.53125 3.820312 8.53125 8.535156 0 4.710938-3.820312 8.53125-8.53125 8.53125zm0 0"/><path d="m503.464844 145.066406h-8.53125c-4.714844 0-8.535156-3.820312-8.535156-8.53125 0-4.714844 3.820312-8.535156 8.535156-8.535156h8.53125c4.714844 0 8.535156 3.820312 8.535156 8.535156 0 4.710938-3.820312 8.53125-8.535156 8.53125zm0 0"/><path d="m443.734375 315.734375c0 103.679687-84.050781 187.730469-187.734375 187.730469s-187.734375-84.050782-187.734375-187.730469c0-103.683594 84.050781-187.734375 187.734375-187.734375s187.734375 84.050781 187.734375 187.734375zm0 0"/></g><path d="m221.867188 273.066406c-2.574219 0-5.011719-1.160156-6.632813-3.15625-6.960937-8.097656-16.851563-13.097656-27.5-13.910156-10.65625.804688-20.550781 5.8125-27.511719 13.917969-2.964844 3.664062-8.339844 4.230469-12.003906 1.265625-3.664062-2.960938-4.230469-8.335938-1.265625-12 10.199219-12.113282 24.96875-19.445313 40.78125-20.25 15.8125.804687 30.582031 8.136718 40.78125 20.25 2.058594 2.558594 2.464844 6.070312 1.046875 9.035156-1.417969 2.960938-4.410156 4.847656-7.695312 4.847656zm0 0" fill="#e57e25"/><path d="m153.601562 230.398438c-2.742187 0-5.316406-1.320313-6.917968-3.542969-1.601563-2.226563-2.039063-5.085938-1.171875-7.683594.410156-1.289063 10.929687-31.4375 50.753906-31.4375 4.714844 0 8.535156 3.820313 8.535156 8.53125 0 4.714844-3.820312 8.535156-8.535156 8.535156-27.664063 0-34.507813 19.566407-34.574219 19.761719-1.160156 3.484375-4.421875 5.835938-8.089844 5.835938zm0 0" fill="#2c2f38"/><path d="m358.398438 273.066406c-2.585938.003906-5.03125-1.167968-6.65625-3.183594-6.957032-8.082031-16.839844-13.074218-27.476563-13.882812-10.652344.804688-20.550781 5.8125-27.511719 13.917969-2.964844 3.664062-8.335937 4.230469-12 1.265625-3.664062-2.960938-4.230468-8.335938-1.269531-12 10.199219-12.113282 24.96875-19.445313 40.78125-20.25 15.8125.804687 30.582031 8.136718 40.78125 20.25 2.058594 2.558594 2.46875 6.070312 1.050781 9.035156-1.417968 2.960938-4.414062 4.847656-7.699218 4.847656zm0 0" fill="#e57e25"/><path d="m358.398438 230.398438c-3.644532 0-6.890626-2.316407-8.070313-5.765626-.34375-.949218-7.5-19.832031-34.59375-19.832031-4.714844 0-8.535156-3.820312-8.535156-8.535156 0-4.710937 3.820312-8.53125 8.535156-8.53125 39.824219 0 50.34375 30.148437 50.753906 31.4375.867188 2.597656.429688 5.457031-1.171875 7.683594-1.601562 2.222656-4.175781 3.542969-6.917968 3.542969zm0 0" fill="#2c2f38"/><path d="m384 337.238281c0 5.886719-.085938 11.691407-.597656 17.578125-.425782 6.675782-1.28125 13.316406-2.558594 19.882813-.074219.660156-.1875 1.316406-.34375 1.960937-3.222656 16.289063-10.871094 31.375-22.101562 43.605469-4.507813 5.175781-9.574219 9.839844-15.101563 13.910156-8.441406 6.445313-17.714844 11.726563-27.5625 15.703125-1.453125.597656-2.988281 1.191406-4.523437 1.707032-4.011719 1.449218-8.023438 2.644531-12.117188 3.753906-11.300781 2.96875-22.886719 4.714844-34.558594 5.203125-2.902344.171875-5.71875.257812-8.535156.257812s-5.632812-.085937-8.535156-.257812c-11.671875-.488281-23.257813-2.234375-34.558594-5.203125-4.09375-1.109375-8.105469-2.304688-12.117188-3.753906-1.535156-.515626-3.070312-1.109376-4.523437-1.707032-9.847656-3.976562-19.121094-9.257812-27.5625-15.703125-5.527344-4.070312-10.59375-8.734375-15.101563-13.910156-11.230468-12.230469-18.878906-27.316406-22.101562-43.605469-.15625-.644531-.269531-1.300781-.34375-1.960937-1.277344-6.566407-2.132812-13.207031-2.558594-19.882813-.511718-5.886718-.597656-11.691406-.597656-17.578125.085938-2.476562.085938-4.949219.257812-7.425781 0-1.707031.082032-3.496094.253907-5.203125.304687-1.519531.445312-3.0625.425781-4.609375 0 0 2.988281 2.304688 8.277344 5.972656h.085937c4.265625 2.902344 10.15625 6.570313 17.410157 10.582032 4.777343 2.730468 10.152343 5.546874 15.957031 8.277343 8.460937 4.003907 17.152343 7.507813 26.023437 10.496094 5.378906 1.792969 10.925782 3.414063 16.640625 4.777344 11.191407 2.765625 22.621094 4.421875 34.132813 4.949219 2.21875.085937 4.4375.171874 6.742187.171874h3.585938c2.304687 0 4.523437-.085937 6.742187-.171874 11.511719-.527344 22.941406-2.183594 34.132813-4.949219 5.714843-1.363281 11.261719-2.984375 16.640625-4.777344 8.871094-2.988281 17.5625-6.492187 26.023437-10.496094 5.804688-2.730469 11.179688-5.546875 15.957031-8.277343 7.253907-4.011719 13.226563-7.765626 17.496094-10.667969 5.375-3.582031 8.277344-5.886719 8.277344-5.886719-.019531 1.546875.121094 3.089844.425781 4.609375.171875 1.707031.253907 3.496094.253907 5.203125.171874 2.476562.171874 4.949219.257812 7.425781zm0 0" fill="#fff"/><path d="m383.402344 354.816406c-.425782 6.675782-1.28125 13.316406-2.558594 19.882813-7.214844 5-14.707031 9.585937-22.445312 13.738281-5.117188 2.816406-10.835938 5.632812-17.066407 8.449219-8.324219 3.808593-16.875 7.113281-25.597656 9.898437-5.460937 1.789063-11.179687 3.414063-17.066406 4.777344-11.210938 2.621094-22.636719 4.222656-34.132813 4.777344-2.21875 0-4.4375.085937-6.742187.085937h-3.585938c-2.304687 0-4.523437-.085937-6.742187-.085937-11.496094-.554688-22.921875-2.15625-34.132813-4.777344-5.886719-1.363281-11.605469-2.988281-17.066406-4.777344-8.722656-2.785156-17.273437-6.089844-25.597656-9.898437-6.230469-2.816407-11.949219-5.632813-17.066407-8.449219-7.738281-4.152344-15.230468-8.738281-22.445312-13.738281-1.277344-6.566407-2.132812-13.207031-2.558594-19.882813 2.210938-.3125 4.453125.269532 6.230469 1.621094 6.011719 4.511719 12.277344 8.671875 18.773437 12.457031 4.863282 2.902344 10.578126 6.058594 17.066407 9.21875 8.3125 4.085938 16.859375 7.675781 25.597656 10.75 5.460937 1.878907 11.179687 3.671875 17.066406 5.121094 11.171875 2.898437 22.609375 4.640625 34.132813 5.203125 2.21875.085938 4.4375.171875 6.742187.171875h3.585938c2.304687 0 4.523437-.085937 6.742187-.171875 11.523438-.5625 22.960938-2.304688 34.132813-5.203125 5.886719-1.449219 11.605469-3.242187 17.066406-5.121094 8.738281-3.074219 17.285156-6.664062 25.597656-10.75 6.488281-3.160156 12.203125-6.316406 17.066407-9.21875 6.496093-3.785156 12.761718-7.945312 18.773437-12.457031 1.777344-1.351562 4.019531-1.933594 6.230469-1.621094zm0 0" fill="#e6e7e8"/><path d="m264.535156 365.054688v95.488281c-2.902344.171875-5.71875.257812-8.535156.257812s-5.632812-.085937-8.535156-.257812v-95.488281c2.21875.085937 4.4375.171874 6.742187.171874h3.585938c2.304687 0 4.523437-.085937 6.742187-.171874zm0 0" fill="#e6e7e8"/><path d="m213.332031 360.105469v92.84375c.035157.816406-.113281 1.632812-.425781 2.390625-4.09375-1.109375-8.105469-2.304688-12.117188-3.753906-1.535156-.515626-3.070312-1.109376-4.523437-1.707032v-92.078125c.011719-.839843.15625-1.675781.425781-2.472656 5.378906 1.792969 10.925782 3.414063 16.640625 4.777344zm0 0" fill="#e6e7e8"/><path d="m170.667969 344.832031v83.96875c.027343 1.972657-.671875 3.886719-1.964844 5.375-5.527344-4.070312-10.59375-8.734375-15.101563-13.910156v-79.613281c-.03125-1.445313.355469-2.867188 1.109376-4.097656 4.777343 2.730468 10.152343 5.546874 15.957031 8.277343zm0 0" fill="#e6e7e8"/><path d="m358.398438 340.652344v79.613281c-4.507813 5.175781-9.574219 9.839844-15.101563 13.910156-1.292969-1.488281-1.992187-3.402343-1.964844-5.375v-83.96875c5.804688-2.730469 11.179688-5.546875 15.957031-8.277343.753907 1.230468 1.140626 2.652343 1.109376 4.097656zm0 0" fill="#e6e7e8"/><path d="m315.734375 357.800781v92.078125c-1.453125.597656-2.988281 1.191406-4.523437 1.707032-4.011719 1.449218-8.023438 2.644531-12.117188 3.753906-.3125-.757813-.460938-1.574219-.425781-2.390625v-92.84375c5.714843-1.363281 11.261719-2.984375 16.640625-4.777344.269531.796875.414062 1.632813.425781 2.472656zm0 0" fill="#e6e7e8"/><path d="m106.667969 346.65625c-2.808594-.003906-5.433594-1.394531-7.011719-3.71875-1.578125-2.320312-1.90625-5.273438-.875-7.882812 1.042969-2.5625 11.527344-25.320313 58.105469-30.875 3.035156-.378907 6.039062.898437 7.875 3.347656 1.835937 2.445312 2.222656 5.6875 1.011719 8.5-1.210938 2.808594-3.835938 4.753906-6.875 5.097656-36.394532 4.34375-44.304688 20.371094-44.371094 20.523438-1.433594 3.046874-4.492188 4.996093-7.859375 5.007812zm0 0" fill="#e57e25"/><path d="m405.332031 346.785156c-3.394531.007813-6.472656-2.003906-7.832031-5.117187-.316406-.632813-8.535156-16.214844-44.375-20.480469-3.039062-.347656-5.660156-2.292969-6.871094-5.101562-1.210937-2.808594-.828125-6.050782 1.007813-8.5 1.835937-2.445313 4.84375-3.722657 7.878906-3.347657 46.574219 5.554688 57.0625 28.296875 58.101563 30.875 1.066406 2.628907.753906 5.617188-.832032 7.96875-1.585937 2.351563-4.238281 3.765625-7.078125 3.765625zm0 0" fill="#e57e25"/><path d="m307.625 84.054688c-33.738281-9.671876-69.511719-9.671876-103.25 0l44.542969-71.425782c1.457031-2.53125 4.160156-4.09375 7.082031-4.09375s5.625 1.5625 7.082031 4.09375zm0 0" fill="#b49aca"/></svg>